# xmcd
# 
# Track frame offsets:
#     150
#     22517
#     41462
#     65952
#     107312
#     134202
#     161630
#     189835
#     214984
# 
# Disc length: 3170
# 
# Revision: 2
# Processed by: cddbd v1.5.2PL0 Copyright (c) Steve Scherf et al.
# Submitted via: BonkEnc v1.0.6
# 
DISCID=780c6009
DTITLE=Steve Kuhn - Seasons of Romance
DYEAR=1995
DGENRE=Contemporary Jazz
TTITLE0=Six Guns
TTITLE1=Romance
TTITLE2=Visions of Gaudi
TTITLE3=There Is No Greater Love
TTITLE4=The Pawnbroker
TTITLE5=Remember
TTITLE6=Clotilde
TTITLE7=Good Morning Heartache
TTITLE8=Looking Back
EXTD=
EXTT0=
EXTT1=
EXTT2=
EXTT3=
EXTT4=
EXTT5=
EXTT6=
EXTT7=
EXTT8=
PLAYORDER=
